<?xml version="1.0" encoding="utf-8"?>
<!-- Generator: Adobe Illustrator 16.0.0, SVG Export Plug-In . SVG Version: 6.00 Build 0)  -->
<!DOCTYPE svg PUBLIC "-//W3C//DTD SVG 1.1//EN" "http://www.w3.org/Graphics/SVG/1.1/DTD/svg11.dtd">
<svg version="1.1" id="Calque_1" xmlns="http://www.w3.org/2000/svg" xmlns:xlink="http://www.w3.org/1999/xlink" x="0px" y="0px"
	 width="1051px" height="496px" viewBox="0 0 1051 496" enable-background="new 0 0 1051 496" xml:space="preserve">
<g>
	<defs>
		<polygon id="SVGID_1_" points="0,0.674 0,496 2.408,496 1056.477,496 		"/>
	</defs>
	<clipPath id="SVGID_2_">
		<use xlink:href="#SVGID_1_"  overflow="visible"/>
	</clipPath>
	<g clip-path="url(#SVGID_2_)">
		<polygon fill="#00E0D1" points="1681.74,916.164 1678.247,807.455 1622.132,781.078 1609.613,961.266 1744.476,1024.665 
			1757.001,844.475 1700.511,817.921 		"/>
		<polygon fill="#00E0D1" points="1613.439,779.648 1556.964,753.094 1538.174,851.366 1534.684,742.618 1478.59,716.244 
			1466.067,896.443 1600.926,959.844 		"/>
		<polygon fill="#00E0D1" points="1470.403,713.738 1413.92,687.177 1395.146,785.437 1391.652,676.705 1335.547,650.319 
			1323.033,830.509 1457.872,893.918 		"/>
		<polygon fill="#00E0D1" points="1326.844,648.92 1270.373,622.367 1251.574,720.645 1248.092,611.892 1191.998,585.514 
			1179.483,765.717 1314.331,829.117 		"/>
		<polygon fill="#00E0D1" points="1714.445,649.734 1631.607,772.932 1762.434,833.475 1845.297,710.289 		"/>
		<polygon fill="#00E0D1" points="1620.012,766.239 1702.856,643.042 1572.032,582.503 1489.175,705.693 		"/>
		<polygon fill="#00E0D1" points="1475.397,697.982 1558.25,574.79 1427.41,514.242 1344.564,637.437 		"/>
		<polygon fill="#00E0D1" points="1332.981,630.745 1415.826,507.551 1284.995,447.006 1202.143,570.197 		"/>
		<polygon fill="#00E0D1" points="1183.625,577.639 1126.985,551.428 1108.794,649.813 1104.648,541.091 1048.396,515.059 
			1036.974,695.32 1172.209,757.904 		"/>
		<polygon fill="#00E0D1" points="1039.683,513.695 983.042,487.482 964.859,585.864 960.707,477.146 904.443,451.108 
			893.027,631.373 1028.264,693.956 		"/>
		<polygon fill="#00E0D1" points="896.246,448.648 839.611,422.439 821.426,520.823 817.271,412.102 761.01,386.066 
			749.594,566.335 884.829,628.914 		"/>
		<polygon fill="#00E0D1" points="752.283,384.703 695.652,358.495 677.486,456.879 673.323,348.162 617.066,322.129 
			605.644,502.39 740.874,564.971 		"/>
		<polygon fill="#00E0D1" points="1189.029,566.795 1271.886,443.602 1141.053,383.057 1058.203,506.252 		"/>
		<polygon fill="#00E0D1" points="1046.612,499.553 1129.457,376.359 998.633,315.818 915.777,439.004 		"/>
		<polygon fill="#00E0D1" points="901.99,431.292 984.855,308.112 854.018,247.563 771.156,370.747 		"/>
		<polygon fill="#00E0D1" points="759.567,364.053 842.416,240.865 711.582,180.318 628.734,303.509 		"/>
		<polygon fill="#00E0D1" points="607.52,312.533 551.041,285.982 532.268,384.229 528.766,275.511 472.669,249.14 460.144,429.328 
			595.001,492.727 		"/>
		<polygon fill="#00E0D1" points="463.963,247.71 407.482,221.153 388.713,319.438 385.209,210.68 329.128,184.312 316.595,364.508 
			451.451,427.904 		"/>
		<polygon fill="#00E0D1" points="320.939,181.805 264.445,155.236 245.67,253.497 242.166,144.759 186.072,118.38 173.559,298.569 
			308.397,361.978 		"/>
		<polygon fill="#00E0D1" points="177.361,116.979 120.898,90.428 102.1,188.706 98.625,79.953 42.531,53.576 29.996,233.771 
			164.847,297.168 		"/>
		<polygon fill="#00E0D1" points="612.959,301.535 695.816,178.347 564.979,117.8 482.133,240.993 		"/>
		<polygon fill="#00E0D1" points="470.538,234.3 553.382,111.1 422.564,50.566 339.707,173.76 		"/>
		<polygon fill="#00E0D1" points="325.929,166.044 408.768,42.847 277.936,-17.698 195.103,105.502 		"/>
		<polygon fill="#00E0D1" points="183.505,98.801 266.358,-24.386 135.52,-84.934 52.674,38.261 		"/>
		<polygon fill="#00E0D1" points="34.15,45.698 -22.483,19.49 -40.668,117.879 -44.82,9.154 -101.093,-16.887 -112.503,163.381 
			22.748,225.971 		"/>
		<polygon fill="#00E0D1" points="-109.78,-18.238 -166.434,-44.456 -184.615,53.926 -188.762,-54.791 -245.012,-80.822 
			-256.455,99.43 -121.211,162.018 		"/>
		<polygon fill="#00E0D1" points="-332.199,-119.836 -388.466,-145.873 -399.876,34.395 -264.652,96.972 -253.229,-83.291 
			-309.869,-109.502 -328.047,-11.111 		"/>
		<polygon fill="#00E0D1" points="-397.185,-147.234 -453.801,-173.436 -471.988,-75.061 -476.15,-183.778 -532.408,-209.812 
			-543.831,-29.549 -408.589,33.035 		"/>
		<polygon fill="#00E0D1" points="39.561,34.857 122.418,-88.334 -8.421,-148.883 -91.271,-25.687 		"/>
		<polygon fill="#00E0D1" points="-102.857,-32.388 -20.011,-155.577 -150.836,-216.119 -233.689,-92.928 		"/>
		<polygon fill="#00E0D1" points="-247.479,-100.645 -164.627,-223.836 -295.464,-284.379 -378.318,-161.193 		"/>
		<polygon fill="#00E0D1" points="-307.053,-291.072 -437.893,-351.621 -520.732,-228.429 -389.907,-167.887 		"/>
		<polygon fill="#00E0D1" points="1649.393,1073.335 1639.253,1003.584 1514.971,946.072 1506.795,1009.359 1496.35,937.454 
			1381.394,884.257 1373.212,947.536 1362.764,875.635 1239.049,818.383 1230.621,883.554 1219.842,809.496 1097.641,752.945 
			1090.192,810.541 1080.687,745.099 955.311,687.079 947.605,746.568 937.789,678.971 805.748,617.866 798.292,675.461 
			788.77,610.008 663.399,551.992 655.699,611.483 645.878,543.883 534.246,492.223 526.296,553.602 516.176,483.861 
			391.889,426.344 383.697,489.622 373.277,417.732 250.478,360.902 243.271,416.62 234.08,353.315 108.152,295.04 100.711,352.642 
			91.183,287.188 -41.401,225.831 -48.615,281.544 -57.817,218.234 -183.754,159.956 -191.209,217.552 -200.719,152.104 
			-333.727,90.553 -341.934,153.824 -352.365,81.927 -476.103,24.665 -484.511,89.846 -495.279,15.791 -552.631,-10.751 
			-616.736,127.778 -555.504,156.115 -498.717,120.543 -538.335,164.06 -412.61,222.241 -357.668,187.82 -395.962,229.945 
			-260.938,292.43 -211.528,261.469 -245.992,299.346 -118.043,358.558 -70.456,328.74 -103.637,365.223 30.965,427.514 
			80.391,396.559 45.912,434.43 173.854,493.636 221.43,463.816 188.244,500.297 313.032,558.043 367.97,523.617 329.658,565.737 
			455.945,624.179 509.029,590.922 472.014,631.614 585.66,684.205 636.914,652.089 601.16,691.379 728.553,750.332 
			777.975,719.377 743.51,757.254 877.564,819.289 928.817,787.168 893.068,826.464 1020.469,885.421 1069.872,854.459 
			1035.404,892.332 1159.622,949.816 1216.41,914.254 1176.823,957.776 1302.521,1015.943 1357.477,981.529 1319.163,1023.646 
			1436.111,1077.766 1491.065,1043.349 1452.742,1085.462 1579.027,1143.902 1632.125,1110.654 1595.102,1151.341 
			1668.881,1185.484 1732.99,1046.965 1657.335,1011.954 		"/>
		<polygon fill="#00E0D1" points="1396.777,1273.828 1453.197,1299.519 1538.342,1231.798 1475.6,1309.718 1532.396,1335.58 
			1661.643,1209.408 1526.042,1147.648 		"/>
		<polygon fill="#00E0D1" points="1333.269,1242.239 1390.08,1268.102 1519.324,1141.93 1383.727,1080.17 1254.451,1206.357 
			1310.865,1232.04 1396.037,1164.315 		"/>
		<polygon fill="#00E0D1" points="1111.617,1139.965 1168.053,1165.664 1253.188,1097.949 1190.446,1175.86 1247.234,1201.719 
			1376.506,1075.564 1240.89,1013.811 		"/>
		<polygon fill="#00E0D1" points="969.309,1072.501 1025.722,1098.189 1110.884,1030.46 1048.115,1108.387 1104.924,1134.254 
			1234.172,1008.081 1098.568,946.318 		"/>
		<polygon fill="#00E0D1" points="1356.423,1429.196 1487.261,1489.738 1527.529,1346.857 1396.697,1286.313 		"/>
		<polygon fill="#00E0D1" points="1253.256,1221.256 1212.996,1364.146 1343.831,1424.695 1384.098,1281.809 		"/>
		<polygon fill="#00E0D1" points="1107.626,1155.203 1067.337,1298.089 1198.175,1358.633 1238.46,1215.752 		"/>
		<polygon fill="#00E0D1" points="964.193,1090.152 923.911,1233.028 1054.75,1293.576 1095.026,1150.698 		"/>
		<polygon fill="#00E0D1" points="822.652,1008.631 878.907,1034.662 964.461,967.473 901.241,1044.997 957.895,1071.211 
			1087.903,945.822 952.686,883.245 		"/>
		<polygon fill="#00E0D1" points="680.753,940.297 737.011,966.33 822.555,899.136 759.329,976.657 815.974,1002.869 
			945.99,877.485 810.769,814.912 		"/>
		<polygon fill="#00E0D1" points="538.321,873.062 594.57,899.091 680.139,831.884 616.91,909.428 673.556,935.64 803.574,810.248 
			668.346,747.67 		"/>
		<polygon fill="#00E0D1" points="396.419,804.709 452.671,830.737 538.239,763.555 475.01,841.075 531.653,867.285 661.675,741.9 
			526.432,679.313 		"/>
		<polygon fill="#00E0D1" points="822.287,1021.817 782,1164.694 912.832,1225.238 953.113,1082.36 		"/>
		<polygon fill="#00E0D1" points="678.848,956.777 638.563,1099.662 769.392,1160.21 809.672,1017.318 		"/>
		<polygon fill="#00E0D1" points="533.21,890.708 492.94,1033.588 623.773,1094.133 664.049,951.256 		"/>
		<polygon fill="#00E0D1" points="389.776,825.67 349.5,968.56 480.318,1029.098 520.609,886.216 		"/>
		<polygon fill="#00E0D1" points="247.305,741.893 303.722,767.578 388.867,699.858 326.126,777.779 382.925,803.641 
			512.182,677.475 376.566,615.709 		"/>
		<polygon fill="#00E0D1" points="104.982,674.423 161.39,700.1 246.563,632.375 183.793,710.3 240.6,736.159 369.855,609.995 
			234.25,548.225 		"/>
		<polygon fill="#00E0D1" points="-37.846,608.031 18.585,633.726 103.711,566.011 40.986,643.925 97.771,669.781 227.023,543.623 
			91.428,481.877 		"/>
		<polygon fill="#00E0D1" points="-180.166,540.565 -123.76,566.246 -38.59,498.525 -101.344,576.453 -44.539,602.315 
			84.697,476.141 -50.899,414.381 		"/>
		<polygon fill="#00E0D1" points="247.228,754.371 206.949,897.256 337.774,957.799 378.055,814.918 		"/>
		<polygon fill="#00E0D1" points="103.796,689.322 63.521,832.204 194.354,892.751 234.615,749.862 		"/>
		<polygon fill="#00E0D1" points="-41.85,623.261 -82.12,766.154 48.708,826.701 88.988,683.81 		"/>
		<polygon fill="#00E0D1" points="-185.281,558.213 -225.55,701.095 -94.725,761.635 -54.442,618.761 		"/>
		<polygon fill="#00E0D1" points="-326.805,476.694 -270.566,502.72 -185.008,435.535 -248.23,513.057 -191.58,539.271 
			-61.564,413.887 -196.783,351.309 		"/>
		<polygon fill="#00E0D1" points="-468.723,408.357 -412.472,434.388 -326.902,367.201 -390.142,444.723 -333.492,470.938 
			-203.482,345.55 -338.694,282.975 		"/>
		<polygon fill="#00E0D1" points="-611.162,341.113 -554.89,367.155 -469.335,299.948 -532.554,377.491 -475.919,403.699 
			-345.887,278.315 -481.131,215.729 		"/>
		<polygon fill="#00E0D1" points="-611.242,231.613 -674.466,309.135 -617.828,335.344 -487.799,209.965 -623.031,147.38 
			-753.063,272.766 -696.798,298.801 		"/>
		<polygon fill="#00E0D1" points="-327.189,489.877 -367.469,632.757 -236.643,693.3 -196.35,550.426 		"/>
		<polygon fill="#00E0D1" points="-470.621,424.84 -510.909,567.729 -380.072,628.271 -339.802,485.379 		"/>
		<polygon fill="#00E0D1" points="-616.26,358.766 -656.539,501.65 -525.693,562.201 -485.445,419.307 		"/>
		<polygon fill="#00E0D1" points="-759.706,293.723 -799.969,436.623 -669.137,497.168 -628.867,354.271 		"/>
	</g>
</g>
</svg>
