<?xml version="1.0" encoding="utf-8"?>
<!-- Generator: Adobe Illustrator 16.0.0, SVG Export Plug-In . SVG Version: 6.00 Build 0)  -->
<!DOCTYPE svg PUBLIC "-//W3C//DTD SVG 1.1//EN" "http://www.w3.org/Graphics/SVG/1.1/DTD/svg11.dtd">
<svg version="1.1" id="Calque_1" xmlns="http://www.w3.org/2000/svg" xmlns:xlink="http://www.w3.org/1999/xlink" x="0px" y="0px"
	 width="21px" height="21px" viewBox="0 0 21 21" enable-background="new 0 0 21 21" xml:space="preserve">
<path fill="#FFFFFF" d="M10.503,0.424c-5.709,0-10.331,4.622-10.331,10.335c0,4.563,2.957,8.434,7.063,9.799
	c0.517,0.094,0.704-0.225,0.704-0.498c0-0.246-0.008-0.896-0.012-1.758c-2.875,0.625-3.482-1.387-3.482-1.387
	C3.979,15.725,3.3,15.41,3.3,15.41c-0.938-0.646,0.071-0.635,0.071-0.635c1.038,0.07,1.583,1.07,1.583,1.07
	c0.919,1.58,2.415,1.125,3.006,0.859c0.092-0.666,0.358-1.125,0.659-1.383c-2.3-0.264-4.71-1.148-4.71-5.105
	c0-1.132,0.407-2.056,1.062-2.777C4.866,7.181,4.512,6.128,5.074,4.708c0,0,0.867-0.278,2.836,1.058
	c0.829-0.228,1.716-0.345,2.594-0.349c0.875,0.004,1.755,0.121,2.583,0.349c1.971-1.336,2.834-1.058,2.834-1.058
	c0.564,1.42,0.215,2.474,0.105,2.732c0.662,0.722,1.063,1.646,1.063,2.774c0,3.966-2.416,4.841-4.717,5.101
	c0.375,0.316,0.703,0.949,0.703,1.914c0,1.377-0.012,2.494-0.012,2.832c0,0.273,0.182,0.596,0.711,0.496
	c4.098-1.371,7.053-5.24,7.053-9.803C20.827,5.046,16.202,0.424,10.503,0.424z"/>
</svg>
