<?xml version="1.0" encoding="utf-8"?>
<!-- Generator: Adobe Illustrator 16.0.0, SVG Export Plug-In . SVG Version: 6.00 Build 0)  -->
<!DOCTYPE svg PUBLIC "-//W3C//DTD SVG 1.1//EN" "http://www.w3.org/Graphics/SVG/1.1/DTD/svg11.dtd">
<svg version="1.1" id="Calque_1" xmlns="http://www.w3.org/2000/svg" xmlns:xlink="http://www.w3.org/1999/xlink" x="0px" y="0px"
	 width="21px" height="21px" viewBox="0 0 21 21" enable-background="new 0 0 21 21" xml:space="preserve">
<g>
	<path fill="#FFFFFF" d="M3.217,0.046c-1.752,0-3.164,1.412-3.164,3.158V17.83c0,1.748,1.416,3.17,3.164,3.17H17.84
		c1.748,0,3.16-1.422,3.16-3.17V3.204c0-1.746-1.412-3.158-3.16-3.158H3.217z M5.775,2.649c1.078,0,1.746,0.707,1.767,1.635
		c0,0.912-0.688,1.641-1.786,1.641H5.735c-1.06,0-1.743-0.729-1.743-1.641C3.992,3.356,4.695,2.649,5.775,2.649L5.775,2.649z
		 M15.059,6.995c2.067,0,3.621,1.355,3.621,4.261v5.443h-3.147v-5.076c0-1.274-0.458-2.146-1.593-2.146
		c-0.869,0-1.384,0.586-1.607,1.152c-0.086,0.203-0.111,0.488-0.111,0.771v5.299H9.076c0,0,0.035-8.593,0-9.479h3.145v1.34
		C12.638,7.919,13.39,6.995,15.059,6.995L15.059,6.995z M4.176,7.216h3.152v9.478H4.176V7.216z"/>
</g>
</svg>
