<?xml version="1.0" encoding="utf-8"?>
<!-- Generator: Adobe Illustrator 16.0.0, SVG Export Plug-In . SVG Version: 6.00 Build 0)  -->
<!DOCTYPE svg PUBLIC "-//W3C//DTD SVG 1.1//EN" "http://www.w3.org/Graphics/SVG/1.1/DTD/svg11.dtd">
<svg version="1.1" id="Calque_1" xmlns="http://www.w3.org/2000/svg" xmlns:xlink="http://www.w3.org/1999/xlink" x="0px" y="0px"
	 width="21px" height="21px" viewBox="0 0 21 21" enable-background="new 0 0 21 21" xml:space="preserve">
<g>
	<path fill="#FFFFFF" d="M10.15,10.147c0.194,0.201,0.54,0.226,0.735,0.03l7.271-7.354H2.881L10.15,10.147z"/>
	<path fill="#FFFFFF" d="M19.758,2.916l-7.973,8.067c-0.333,0.333-0.785,0.521-1.258,0.521c-0.47,0-0.918-0.188-1.252-0.521
		L1.26,2.885C1.132,3.003,1.008,3.164,1.008,3.346V17.18c0,0.35,0.358,0.949,0.713,0.949h17.99c0.352,0,0.723-0.6,0.723-0.949V3.979
		C20.434,3.518,20.131,3.134,19.758,2.916z"/>
</g>
</svg>
